<svg xmlns="http://www.w3.org/2000/svg" viewBox="0 0 512 512" role="img" aria-label="Belegger Kees">
<rect width="512" height="512" rx="96" fill="#C4303C"/>
<g fill="#FFFFFF" transform="translate(10.51 388.67) scale(0.17808 -0.17808)">
<path d="M135 0V1490H726Q890 1490 999.5 1440.5Q1109 1391 1163.5 1305.0Q1218 1219 1218 1107Q1218 1019 1183.0 953.5Q1148 888 1087.5 846.5Q1027 805 950 787V772Q1034 769 1108.5 724.5Q1183 680 1229.5 600.5Q1276 521 1276 410Q1276 293 1218.0 200.0Q1160 107 1046.5 53.5Q933 0 764 0ZM440 251H704Q838 251 900.0 303.0Q962 355 962 439Q962 503 931.5 551.5Q901 600 845.0 627.5Q789 655 712 655H440ZM440 864H681Q746 864 798.0 887.5Q850 911 879.5 954.5Q909 998 909 1058Q909 1139 851.5 1190.0Q794 1241 687 1241H440Z"/>
<path transform="translate(1335 0)" d="M360 337V615Q406 698 450.0 768.0Q494 838 547.0 908.5Q600 979 668 1062L1033 1490H1406L777 762L752 771ZM135 0V1490H440V1083L434 703L440 554V0ZM1061 0 619 672 812 900 1422 0Z"/>
</g>
</svg>
